<?xml version="1.0" standalone="no"?>
<!DOCTYPE svg PUBLIC "-//W3C//DTD SVG 20010904//EN"
 "http://www.w3.org/TR/2001/REC-SVG-20010904/DTD/svg10.dtd">
<svg version="1.0" xmlns="http://www.w3.org/2000/svg"
 width="500.000000pt" height="500.000000pt" viewBox="0 0 500.000000 500.000000"
 preserveAspectRatio="xMidYMid meet">
<metadata>
Created by potrace 1.14, written by Peter Selinger 2001-2017
</metadata>
<g transform="translate(0.000000,500.000000) scale(0.100000,-0.100000)"
fill="#000000" stroke="none">
<path d="M2330 4900 c-1036 -80 -1901 -803 -2160 -1807 -98 -378 -98 -818 0
-1196 220 -852 885 -1517 1737 -1737 378 -98 818 -98 1196 0 424 109 800 325
1109 637 309 311 519 679 628 1100 98 378 98 818 0 1196 -244 943 -1030 1650
-1987 1786 -165 24 -379 32 -523 21z"/>
</g>
</svg>
